PathFileType	4	(X/Y/Z)	G:\Shared drives\HIT\Data\HapticPilot\Subject1\Edited\walking_FB1_noFB1.trc
DataRate	CameraRate	NumFrames	NumMarkers	Units	OrigDataRate	OrigDataStartFrame	OrigNumFrames
50.00	50.00	      6	34	mm	50.00	788	      3148
Frame#	Time	r_knee			r_shank(antsup)			r_ankle			r_calc			r_5meta			r_toe			L_knee			L_shank(ant_sup)			L_ankle			L_calc			L_5meta			L_toe			r_sh2			r_sh3			r_sh4			L_sh2			L_sh3			r_thigh1			r_thigh2			r_thigh3			r_thigh4			r_thigh5			L_thigh1			L_thigh2			L_thigh3			L_thigh4			r.ASIS			r.PSIS			L.ASIS			L.PSIS			C7			R_Shoulder			L_Shoulder			Sternum			
		X1	Y1	Z1	X2	Y2	Z2	X3	Y3	Z3	X4	Y4	Z4	X5	Y5	Z5	X6	Y6	Z6	X7	Y7	Z7	X8	Y8	Z8	X9	Y9	Z9	X10	Y10	Z10	X11	Y11	Z11	X12	Y12	Z12	X13	Y13	Z13	X14	Y14	Z14	X15	Y15	Z15	X16	Y16	Z16	X17	Y17	Z17	X18	Y18	Z18	X19	Y19	Z19	X20	Y20	Z20	X21	Y21	Z21	X22	Y22	Z22	X23	Y23	Z23	X24	Y24	Z24	X25	Y25	Z25	X26	Y26	Z26	X27	Y27	Z27	X28	Y28	Z28	X29	Y29	Z29	X30	Y30	Z30	X31	Y31	Z31	X32	Y32	Z32	X33	Y33	Z33	X34	Y34	Z34	

788	15.740	721.78662	414.52856	556.10327	694.03107	408.53156	466.03363	451.50439	439.67471	169.88710	356.24939	489.81702	174.19463	505.49976	416.73636	46.78923	561.98187	475.30923	57.43668	987.17065	710.36084	564.72906	1046.89270	703.77020	459.08582	1059.28772	689.96460	105.95337	987.87268	637.37799	67.18980	1222.93311	653.64587	89.67239	1188.44458	709.82660	47.22363	628.83887	414.44623	365.40839	629.01416	408.20090	504.70624	559.45313	412.10248	411.98663	956.25500	720.94879	453.68253	977.85120	715.82550	332.89346	848.25610	390.51065	865.48456	836.12885	394.82773	751.10461	785.23499	388.66815	724.16620	735.25592	385.46439	871.78271	727.35339	401.66592	756.42065	965.14740	741.39758	837.14362	1015.15570	729.42804	708.15607	852.70093	748.49213	796.60699	907.44104	727.59900	672.93243	901.71619	434.76465	1063.24597	716.53687	536.62445	1087.61487	914.57434	688.80835	1078.65845	722.62616	619.20514	1086.78455	813.42487	565.11414	1582.62451	876.98169	405.09433	1544.02417	853.84601	753.25214	1531.40283	950.14160	575.16193	1497.59619	
789	15.760	745.09515	412.07584	552.64954	711.78027	406.50006	464.34012	451.18195	438.14627	184.35646	359.48178	489.92404	202.21498	486.81870	416.88837	52.34152	544.53992	475.66193	56.21756	987.03802	713.44092	565.84650	1042.73608	706.22705	457.91071	1039.76013	689.02393	105.77280	965.02460	637.43732	68.52200	1202.08911	651.26776	82.64651	1166.34546	709.25903	43.92554	640.07037	412.73093	368.22571	649.60712	407.43860	507.27502	573.94000	412.12064	419.30002	952.52039	724.92969	455.76270	969.96448	719.32770	334.13046	858.32349	394.04858	865.92920	850.38849	395.48859	751.74774	800.45471	390.12564	722.11340	744.99097	390.10376	868.19757	741.84998	402.90707	752.16315	968.59479	743.84357	842.58130	1020.85968	732.05560	714.31085	856.89075	753.48755	799.60370	913.12573	731.55676	676.81335	905.25238	437.98694	1065.54761	719.80688	538.73376	1089.02380	916.48248	691.66577	1080.98560	724.71533	621.54865	1089.05310	815.09418	569.60040	1584.14246	878.47278	409.43414	1546.26270	856.63019	757.41071	1532.90857	951.98181	579.08203	1499.54370	
790	15.780	770.74109	409.85846	548.95813	735.11108	404.46191	463.23740	459.47733	437.08838	199.75063	373.43552	489.74728	233.70164	471.87845	417.45770	62.93184	528.93854	476.17181	57.74904	984.22498	717.63159	567.99860	1037.82556	709.38318	456.76096	1017.75079	688.23737	105.72343	941.10498	637.61163	69.40935	1179.12085	649.94006	79.11343	1142.90369	709.12122	42.94099	657.39532	410.76288	371.62448	675.91809	408.03378	509.95676	594.70398	412.75711	426.92413	947.71814	729.14624	458.37088	959.57471	721.53516	336.13800	868.84778	397.00049	866.34680	866.29700	395.64694	752.30426	817.74872	390.58508	719.84314	755.25232	394.58539	863.42114	758.10779	404.28479	747.07416	970.53162	747.47668	846.75830	1021.96191	736.21985	718.14233	859.18939	758.37372	804.86908	914.35419	736.45721	680.84540	909.22235	441.94174	1068.05542	722.17139	539.72949	1090.60291	916.95331	694.87024	1084.59143	726.05988	622.61072	1091.44250	815.08618	573.94824	1587.59314	879.50415	413.53470	1548.72888	859.89642	761.30853	1534.65137	953.18311	582.60773	1501.67200	
791	15.800	797.42194	408.98709	545.27643	761.72675	403.68045	462.16193	473.51807	436.36581	216.98613	396.15921	489.19440	265.99228	463.73969	417.91513	79.67017	519.67853	475.92755	65.51733	981.55762	720.62152	569.17242	1028.78821	713.10925	455.09314	993.82819	688.77295	105.54871	916.56537	638.24652	69.78587	1155.33276	650.19781	77.27115	1118.18787	710.05005	42.24186	679.26764	409.63638	375.13037	705.38324	408.12137	512.17932	619.63855	412.93951	433.91013	938.92352	730.93701	460.48224	945.69147	722.75757	337.78064	877.95648	398.88821	867.02710	881.88989	395.25812	753.39667	835.52069	389.33597	717.98364	764.78400	398.32632	857.45709	774.15594	403.90518	740.56390	969.27466	751.93341	847.70782	1019.24286	740.38678	718.56866	857.95502	762.46063	807.43903	911.07935	739.87787	682.59106	910.07800	445.21622	1069.62939	723.40295	539.93756	1091.42725	917.11652	698.73828	1088.45349	726.90454	622.72296	1093.12646	816.49530	578.26831	1588.29675	879.98853	417.37131	1550.84412	863.00397	764.67133	1536.19788	953.64532	585.69531	1503.24316	
792	15.820	824.01404	408.30103	543.60614	788.88550	402.68137	463.01294	489.62415	436.56985	232.55583	421.10666	489.60577	292.06232	462.52417	419.89755	97.26630	517.96600	476.74667	77.59221	972.87799	722.77661	568.39270	1017.56866	715.73792	452.94305	969.90753	688.80402	105.44858	891.92688	638.42639	70.35076	1131.31091	650.37506	76.16980	1093.77405	710.71045	42.05799	702.93457	409.41910	379.55905	734.77191	406.44635	515.54871	645.50507	413.04865	440.89847	927.22614	732.09521	461.87567	929.48035	723.74725	338.53775	885.10266	399.73535	868.47064	895.99884	394.55914	755.58142	852.04614	387.19278	716.97064	772.82349	401.52713	852.07886	789.47052	404.75650	735.78668	967.07452	757.09674	847.12799	1012.87445	744.86188	716.45337	854.43201	763.22083	808.24762	905.52167	741.11554	683.81561	911.04279	448.38409	1070.62280	723.73102	540.25385	1091.36328	917.18140	702.44348	1091.52673	727.18262	623.08337	1094.16162	815.97449	581.58551	1589.99207	879.58789	420.43799	1552.74060	865.00146	767.42474	1537.59583	953.57800	588.25574	1504.96521	
793	15.840	850.02667	406.61697	545.83929	815.88306	401.48544	466.19574	508.60962	437.60449	246.15201	440.98975	488.25665	309.09192	477.89487	424.73679	111.10831	532.32141	482.80170	91.85930	962.53998	724.52740	567.84180	1004.69299	716.75024	451.00336	945.75183	688.46112	105.76688	867.32813	638.20990	70.84048	1106.89429	650.66473	74.96084	1068.98560	711.02081	41.85614	727.11908	409.32098	385.97882	763.72229	405.00766	520.76831	672.18878	412.13260	449.41550	915.09003	734.09875	462.67984	913.62598	724.94800	339.63730	891.41315	400.54712	871.79254	908.47052	393.74347	759.87598	865.93115	387.20377	719.14026	780.30762	404.59775	849.39636	803.81067	406.18970	734.66327	962.11487	761.34912	846.22601	1004.89557	749.10571	714.60406	848.16040	763.69287	809.91400	896.79163	742.55292	684.24988	910.92371	451.45361	1071.51294	723.23761	541.55817	1090.89282	916.96191	705.66132	1093.62561	726.59302	624.34637	1095.30212	815.14453	584.36859	1592.30566	878.17242	422.68262	1554.76685	865.78174	769.79352	1539.03186	952.96063	590.25208	1506.98779	
